<?xml version="1.0" encoding="iso-8859-1"?>
<svg version="1.1" id="dacvestor" xmlns="http://www.w3.org/2000/svg" xmlns:xlink="http://www.w3.org/1999/xlink" x="0px" y="0px"
	 viewBox="0 0 512 512" style="enable-background:new 0 0 512 512;" xml:space="preserve">
<g fill="#f05020">
	<circle cx="256" cy="256" r="256" />
</g>
<path style="fill:#f8b838;" d="M360.7,252.7c1.201,4.799-0.3,10.199-4.2,13.799L256,367l-49.501,49.499
	c-5.099,5.4-13.2,6-19.199,1.8c-6-4.499-8.101-12.299-4.801-18.9l52.2-104.7l-73.499-24.6c-4.801-1.5-8.701-5.7-9.901-10.8
	c-1.201-4.799,0.3-10.201,4.2-13.801l150-150c5.099-5.4,13.2-5.999,19.199-1.8c6,4.501,8.101,12.301,4.801,18.9l-52.2,104.7
	l73.499,24.6C355.6,243.399,359.5,247.599,360.7,252.7z"/>
<path style="fill:#f89830;" d="M356.499,266.499L256,367V145l49.501-49.501c5.099-5.4,13.2-5.999,19.199-1.8
	c6,4.501,8.101,12.301,4.801,18.9l-52.2,104.7l73.499,24.6c4.801,1.5,8.701,5.7,9.901,10.801
	C361.901,257.5,360.399,262.899,356.499,266.499z"/>
</svg>
